# xmcd CD database file
#
# Track frame offsets:
#	150
#	29777
#	42140
#	55662
#	69672
#	83487
#	99127
#	115457
#	126897
#	160820
#	174737
#	187622
#	212390
#	226225
#	252682
#	264835
#	277165
#	290055
#	302727
#	316545
#
# Disc length: 4398 seconds
#
# Revision: 0
# Processed by: cddbd v1.5PL3 Copyright (c) Steve Scherf et al.
# Submitted via: CDex 1.50beta10
#
DISCID=12112c14
DTITLE=Dexter Gordon - Masters Of Jazz CD2
DYEAR=1900
DGENRE=Jazz
TTITLE0=The Chase
TTITLE1=Mischievous Lady
TTITLE2=Lullaby In Rhythm
TTITLE3=I Want A Big Butter And Egg Man
TTITLE4=Chromatic Aberration
TTITLE5=Talk Of The Town
TTITLE6=Blues Bikini
TTITLE7=I'll Follow You
TTITLE8=Hornin' In
TTITLE9=Ghost Of A Chance
TTITLE10=Sweet And Lovely
TTITLE11=The Duel
TTITLE12=Bop
TTITLE13=Settin' The Pace
TTITLE14=So Easy
TTITLE15=Dexter's Riff
TTITLE16=Dexter's Mood
TTITLE17=Dextrose
TTITLE18=Index
TTITLE19=Dextivity
EXTD=
EXTT0=
EXTT1=
EXTT2=
EXTT3=
EXTT4=
EXTT5=
EXTT6=
EXTT7=
EXTT8=
EXTT9=
EXTT10=
EXTT11=
EXTT12=
EXTT13=
EXTT14=
EXTT15=
EXTT16=
EXTT17=
EXTT18=
EXTT19=
PLAYORDER=
